<svg width="139" height="149" viewBox="0 0 139 149" fill="none" xmlns="http://www.w3.org/2000/svg">
<g id="fleche1">
<g id="Group">
<path id="Vector" d="M22.1175 56.1805C24.4028 52.3037 26.8667 48.5353 29.5032 44.8881C32.138 41.2415 34.9453 37.716 37.9096 34.3258C39.569 32.4289 41.2787 30.573 43.0346 28.7621L42.5483 29.2632C44.4926 27.2611 46.4965 25.3108 48.5549 23.4184C50.6683 21.4756 52.823 19.5592 55.0997 17.7942C56.4405 16.7537 57.8357 15.7793 59.3218 14.9299L58.6853 15.2929C60.3749 14.3341 62.1831 13.5402 64.1103 13.06L63.3844 13.2383C64.8182 12.8867 66.3058 12.7137 67.8112 12.7415L67.0751 12.7261C68.3562 12.7533 69.6406 12.9261 70.8973 13.2689L70.1839 13.0731C71.1951 13.3544 72.1778 13.7449 73.1045 14.2555L72.4518 13.895C73.2655 14.3486 74.0228 14.8918 74.712 15.5172L74.158 15.0073C74.8999 15.6913 75.5456 16.4583 76.0937 17.2927L75.6714 16.6469C76.3085 17.6274 76.7985 18.6785 77.1615 19.7658L76.9237 19.0467C77.3657 20.3942 77.606 21.7791 77.6823 23.1659L77.644 22.4511C77.7217 23.9964 77.5923 25.5302 77.2708 27.0159L77.4205 26.3365C76.9434 28.4978 76.0813 30.5409 75.0509 32.4714L75.3755 31.8633C74.152 34.1437 72.6866 36.2776 71.2071 38.3947C69.7275 40.5119 68.211 42.7252 66.7963 44.947C65.3591 47.2023 63.9834 49.4963 62.6701 51.8267C61.2638 54.3226 59.9198 56.8548 58.6442 59.423C57.4549 61.8204 56.3271 64.2525 55.266 66.7131C54.2049 69.1737 53.2159 71.6403 52.2902 74.145C51.3644 76.6497 50.4931 79.2082 49.6956 81.7761C48.8981 84.344 48.094 87.1634 47.5029 89.9266C46.9677 92.4311 46.6061 94.9869 46.5233 97.5767C46.4406 100.166 46.6036 103.066 47.2814 105.752C47.9592 108.437 49.1677 111.201 50.9877 113.558C52.7476 115.838 55.0879 117.63 57.6726 118.918C58.6843 119.423 59.7441 119.818 60.8256 120.118C62.133 120.481 63.4344 120.778 64.7709 120.928C67.298 121.212 69.8593 121.151 72.3388 120.845C74.8183 120.539 77.3337 119.957 79.7535 119.275C82.4614 118.511 85.1168 117.605 87.7077 116.565C90.2986 115.526 92.8208 114.348 95.2682 113.045C97.8935 111.647 100.448 110.129 102.897 108.471C105.176 106.925 107.367 105.261 109.454 103.486C111.689 101.585 113.793 99.5475 115.799 97.4192C116.708 96.4544 117.589 95.4659 118.442 94.4545C118.861 93.9576 118.998 93.0975 118.877 92.4546C118.749 91.7734 118.277 90.9864 117.663 90.5799C117.049 90.1733 116.287 89.8989 115.563 90.0092L114.837 90.1875C114.375 90.3714 114.001 90.6603 113.714 91.0517C112.628 92.3398 111.496 93.5889 110.322 94.8017L110.808 94.3005C108.895 96.2699 106.869 98.133 104.742 99.8835C102.613 101.635 100.384 103.271 98.0637 104.786C96.7507 105.644 95.4093 106.46 94.0439 107.239L94.6804 106.876C92.3226 108.217 89.8873 109.439 87.3857 110.533C84.8841 111.627 82.2889 112.603 79.6514 113.437C78.2853 113.87 76.9061 114.271 75.508 114.616L76.2339 114.438C73.8356 115.026 71.375 115.447 68.8681 115.575C68.1687 115.61 67.4679 115.621 66.7649 115.607L67.501 115.622C65.6655 115.581 63.8187 115.356 62.0162 114.865L62.7296 115.061C61.412 114.698 60.1319 114.193 58.9244 113.527L59.577 113.887C58.464 113.269 57.4308 112.522 56.4941 111.662L57.048 112.172C56.0863 111.282 55.2466 110.282 54.537 109.198L54.9593 109.844C54.1433 108.581 53.5162 107.226 53.0511 105.826L53.2889 106.545C52.6303 104.54 52.3038 102.471 52.1903 100.41L52.2286 101.125C52.0816 98.3044 52.3242 95.5023 52.7952 92.7643C52.9293 91.9811 53.0838 91.202 53.2534 90.4291L53.1037 91.1084C53.6015 88.8594 54.25 86.6524 54.9229 84.4582C55.5958 82.264 56.3513 79.988 57.1416 77.7839C58.731 73.3476 60.5273 68.9942 62.5186 64.7367C63.6426 62.3347 64.8308 59.9643 66.0779 57.6276L65.7533 58.2357C67.7193 54.5572 69.8354 50.9617 72.0997 47.4623C73.2288 45.7189 74.3982 44.0043 75.588 42.3021C76.7439 40.648 77.9024 38.9948 78.9548 37.2738C81.1992 33.6029 83.073 29.5654 83.3189 25.1287C83.435 23.0415 83.2577 20.8568 82.6338 18.7965C82.2918 17.6642 81.891 16.5409 81.3144 15.4834C80.7379 14.4258 80.0715 13.4224 79.2695 12.5258C77.7132 10.785 75.7463 9.4072 73.5802 8.52655C72.5064 8.09068 71.3717 7.77694 70.2458 7.55751C69.12 7.33807 67.9412 7.27425 66.7806 7.25626C61.9961 7.1774 57.6266 9.08886 53.8715 11.5678C51.9537 12.8334 50.1821 14.2836 48.4508 15.7707C46.8277 17.166 45.2347 18.5941 43.677 20.0572C40.4111 23.1227 37.2809 26.3299 34.3012 29.6589C31.4576 32.8358 28.7543 36.1345 26.2024 39.5443C23.6505 42.954 21.2501 46.4749 19.0097 50.0953C18.4598 50.9826 17.92 51.8781 17.3903 52.7777C17.1693 53.0572 17.037 53.3728 16.9909 53.7235C16.8837 54.0617 16.8724 54.4128 16.9552 54.7775C17.0831 55.4587 17.5553 56.2457 18.1692 56.6523C18.783 57.0588 19.5446 57.3332 20.2688 57.2229C20.9929 57.1126 21.7537 56.796 22.1175 56.1805Z" fill="#0D7468"/>
<path id="Vector_2" d="M91.7991 92.4537C95.4936 92.8939 99.2385 92.9124 102.869 92.4874C106.506 92.0614 110.09 91.1985 113.456 89.9426C115.251 89.2726 116.984 88.4778 118.648 87.5663L114.609 85.2999C114.914 89.8057 115.516 94.3116 116.413 98.7863C117.354 103.48 118.64 108.116 120.178 112.698C121.002 115.145 121.915 117.571 122.913 119.969C123.184 120.616 123.891 121.219 124.54 121.485C125.19 121.751 126.09 121.799 126.714 121.516C127.339 121.234 127.943 120.733 128.162 120.046C128.382 119.36 128.336 118.658 128.034 117.934C126.979 115.4 126.02 112.836 125.16 110.246L125.398 110.965C124.291 107.624 123.346 104.24 122.574 100.833C121.801 97.4266 121.197 93.9953 120.766 90.5546C120.523 88.6047 120.336 86.6529 120.203 84.7023C120.104 84.1993 119.884 83.7445 119.543 83.3378C119.303 83.0356 119.009 82.806 118.664 82.6476C118.348 82.4408 118.002 82.3151 117.626 82.2731C117.114 82.1992 116.628 82.2538 116.164 82.4359C113.798 83.7326 111.286 84.7898 108.67 85.5947C107.919 85.8258 107.158 86.034 106.394 86.2237L107.119 86.0455C104.278 86.7422 101.344 87.1555 98.3734 87.2655C97.5299 87.2969 96.6841 87.3027 95.8378 87.2863L96.5738 87.3017C95.1299 87.2699 93.6836 87.1698 92.239 86.9977C91.4879 86.9088 90.7113 87.0787 90.141 87.5233C89.6263 87.9235 89.2053 88.639 89.1813 89.309C89.155 90.0288 89.347 90.8127 89.8795 91.3879C90.3836 91.9337 91.0496 92.3641 91.7965 92.4527L91.7991 92.4537Z" fill="#0D7468"/>
</g>
</g>
</svg>
