<svg width="123" height="123" viewBox="0 0 123 123" fill="none" xmlns="http://www.w3.org/2000/svg">
<g id="fleche2">
<g id="Group">
<path id="Vector" d="M7.18555 24.6748C8.58758 24.5187 10.0014 24.4217 11.4206 24.3774L10.4637 24.4055C14.4168 24.2919 18.4065 24.6116 22.3558 25.3264C23.462 25.5273 24.5657 25.758 25.6639 26.0164L24.7475 25.8008C29.3391 26.8868 33.8398 28.4689 38.1818 30.4462C39.4241 31.0126 40.6522 31.6107 41.868 32.2377L41.0296 31.804C46.2337 34.4943 51.1825 37.7204 55.8142 41.3559C57.1178 42.3784 58.3956 43.4345 59.6466 44.5195L58.9294 43.8971C61.8141 46.4036 64.5493 49.0718 67.1554 51.8665C70.0229 54.9447 72.7334 58.1639 75.3046 61.4869C76.7515 63.3571 78.1529 65.2593 79.517 67.1873L78.9645 66.4055C82.4182 71.2902 85.6185 76.3368 88.6581 81.4689C91.6978 86.601 94.5648 91.7985 97.3754 97.0324C98.9605 99.9806 100.524 102.94 102.088 105.899C102.518 106.713 103.336 107.416 104.193 107.735C105.049 108.053 106.19 108.055 106.962 107.641C107.735 107.226 108.425 106.561 108.654 105.676C108.884 104.79 108.827 103.799 108.353 102.904C106.076 98.5916 103.794 94.2803 101.453 89.9982C99.1129 85.7161 96.7264 81.4832 94.2242 77.3015C91.722 73.1197 89.1034 68.9964 86.3241 64.9781C83.4046 60.7586 80.3448 56.6285 77.046 52.6799C74.0285 49.0676 70.8285 45.5908 67.4055 42.3515C63.9824 39.1122 60.6348 36.2973 56.9864 33.6182C53.5613 31.1043 49.9799 28.8144 46.2592 26.7992C42.3108 24.6609 38.2466 22.7641 34.0434 21.2739C29.8401 19.7837 25.6109 18.6982 21.3135 18.0123C17.0062 17.3257 12.6972 17.1545 8.41325 17.3892C7.43348 17.4431 6.45759 17.5231 5.48614 17.6317C4.61336 17.7287 3.72413 18.3705 3.26996 19.0738C2.81579 19.7772 2.59851 20.8634 2.84891 21.7347C3.0993 22.606 3.63114 23.5328 4.46667 24.0548C5.30221 24.5769 6.20657 24.7822 7.17801 24.6736L7.18555 24.6748Z" fill="#0D7468"/>
<path id="Vector_2" d="M109.642 80.2641C107.899 82.7504 106.485 85.4495 105.298 88.2682C104.218 90.8357 103.405 93.5313 102.876 96.3043C102.525 98.1427 102.253 100.003 102.113 101.886L105.872 98.6262C98.5234 97.5013 91.175 96.3764 83.8242 95.2519C81.7506 94.9348 79.677 94.6176 77.6034 94.3004C76.6875 94.1591 75.6098 94.5461 74.9586 95.1245C74.3074 95.7028 73.8311 96.6651 73.8445 97.5575C73.8593 98.5173 74.149 99.5485 74.8645 100.282C75.5799 101.016 76.3949 101.435 77.3769 101.586C84.7252 102.711 92.0736 103.835 99.4244 104.96C101.498 105.277 103.572 105.594 105.645 105.911C106.152 105.984 106.629 105.924 107.074 105.738C107.541 105.637 107.947 105.421 108.29 105.087C108.962 104.43 109.332 103.631 109.404 102.654C109.496 101.419 109.641 100.194 109.839 98.9777L109.687 99.9003C110.276 96.3555 111.326 92.9309 112.797 89.716L112.416 90.542C113.388 88.4311 114.541 86.42 115.866 84.5304C116.372 83.8086 116.506 82.6884 116.294 81.7994C116.083 80.9104 115.446 79.9201 114.648 79.418C113.85 78.9159 112.824 78.5801 111.889 78.7828C110.955 78.9854 110.191 79.4724 109.634 80.2628L109.642 80.2641Z" fill="#0D7468"/>
</g>
</g>
</svg>
