<svg width="63" height="63" viewBox="0 0 63 63" fill="none" xmlns="http://www.w3.org/2000/svg">
<g id="Frame">
<path id="Vector" d="M19.5369 14.0439C21.2152 14.0439 22.7643 14.1738 24.1844 14.5634C25.6045 14.8231 26.7663 15.3425 27.7993 15.9918C28.832 16.6411 29.6066 17.5501 30.1229 18.7188C30.6393 19.8876 30.8976 21.316 30.8976 22.8743C30.8976 24.6923 30.5104 26.2508 29.6066 27.4194C28.8319 28.5881 27.541 29.627 25.9918 30.4061C28.1865 31.0553 29.8646 32.2242 30.8976 33.7824C31.9302 35.3406 32.5757 37.2886 32.5757 39.4963C32.5757 41.3143 32.1885 42.8725 31.5431 44.1711C30.8976 45.4697 29.8646 46.6384 28.7028 47.4177C27.541 48.1968 26.1209 48.846 24.5717 49.2355C23.0225 49.6251 21.4734 49.885 19.9242 49.885H2.625V14.0439H19.5369ZM18.5041 28.5881C19.9242 28.5881 21.0861 28.1985 21.9898 27.5494C22.8934 26.8999 23.2807 25.7312 23.2807 24.3028C23.2807 23.5236 23.1516 22.7445 22.8934 22.225C22.6352 21.7056 22.248 21.316 21.7316 20.9264C21.2152 20.6667 20.6988 20.407 20.0533 20.2771C19.4078 20.1473 18.7623 20.1473 17.9877 20.1473H10.5V28.5881H18.5041ZM18.8914 43.9115C19.666 43.9115 20.4406 43.7816 21.0861 43.6516C21.7316 43.522 22.377 43.2621 22.8934 42.8725C23.4098 42.483 23.7971 42.0934 24.1844 41.444C24.4426 40.7948 24.7008 40.0157 24.7008 39.1067C24.7008 37.2886 24.1844 35.99 23.1516 35.081C22.1189 34.3019 20.6988 33.9124 19.0205 33.9124H10.5V43.9115H18.8914ZM43.8073 43.7816C44.8402 44.8206 46.3893 45.3398 48.4549 45.3398C49.875 45.3398 51.166 44.9502 52.1987 44.3011C53.2316 43.522 53.8771 42.7426 54.1354 41.9635H60.4611C59.4282 45.0802 57.8792 47.2878 55.8135 48.7163C53.7479 50.0149 51.2951 50.794 48.3257 50.794C46.2601 50.794 44.4528 50.4044 42.7746 49.755C41.0962 49.1059 39.8052 48.1968 38.6434 46.8982C37.4816 45.7293 36.5778 44.3011 36.0615 42.6129C35.416 40.9248 35.1577 39.1067 35.1577 37.029C35.1577 35.081 35.416 33.2629 36.0615 31.5748C36.707 29.8867 37.6107 28.4581 38.7726 27.1595C39.9344 25.9909 41.3545 24.9521 42.9038 24.3028C44.5819 23.6535 46.2601 23.2639 48.3257 23.2639C50.5205 23.2639 52.4569 23.6535 54.1354 24.5625C55.8135 25.4715 57.1045 26.5104 58.1372 28.0686C59.1701 29.4971 59.9448 31.1852 60.4611 33.0033C60.7191 34.8214 60.8483 36.6392 60.7191 38.7172H42C42 40.7948 42.7746 42.7426 43.8073 43.7816ZM51.9406 30.1465C51.0368 29.2375 49.6167 28.718 47.9385 28.718C46.7767 28.718 45.8729 28.9776 45.0983 29.3672C44.3237 29.7567 43.8073 30.2762 43.291 30.7957C42.7746 31.3152 42.5163 31.9643 42.3872 32.6138C42.2583 33.2629 42.1292 33.7824 42.1292 34.3019H53.7479C53.4899 32.3539 52.8441 31.0553 51.9406 30.1465ZM40.5799 16.5112H55.0389V20.0174H40.5799V16.5112Z" fill="#007368"/>
</g>
</svg>
