<svg width="160" height="160" viewBox="0 0 160 160" fill="none" xmlns="http://www.w3.org/2000/svg">
<g id="hachtag">
<g id="Ellipse 7" filter="url(#filter0_d_7_90)">
<circle cx="80" cy="76" r="76" fill="#0D7468"/>
</g>
<g id="B_hair">
<g id="Group">
<path id="Vector" d="M70.8455 118.687C71.3936 113.95 71.674 109.191 71.687 104.436C71.7 99.6812 71.4235 94.5326 70.894 89.6169C70.3879 84.9233 69.6247 80.2613 68.6081 75.656C67.5916 71.0507 66.3089 66.4582 64.7817 61.9764C63.2545 57.4947 61.3613 52.7306 59.2571 48.2745C59.014 47.7582 58.7656 47.2451 58.5155 46.7319C58.2455 46.1778 57.6416 45.7096 57.049 45.5269C56.4564 45.3441 55.623 45.388 55.0581 45.7125C54.4932 46.0371 53.98 46.5378 53.795 47.1721C53.6099 47.8063 53.6395 48.4914 53.9433 49.1154C55.3922 52.0787 56.7232 55.0984 57.9332 58.166C58.2792 59.0429 58.6146 59.9228 58.9413 60.8075L58.7171 60.1996C60.2951 64.4802 61.6421 68.8469 62.7527 73.2742C63.856 77.6779 64.7281 82.1424 65.36 86.6425C65.7164 89.1764 65.9967 91.7211 66.2013 94.2733L66.1469 93.6025C66.4053 96.8356 66.5448 100.081 66.5574 103.33C66.5707 106.566 66.4623 109.804 66.2308 113.037C66.0996 114.865 65.9274 116.69 65.716 118.514C65.6448 119.134 65.9508 119.87 66.3658 120.315C66.7808 120.76 67.4971 121.118 68.1382 121.112C68.7792 121.105 69.5027 120.915 69.994 120.438C70.4852 119.962 70.7667 119.38 70.8454 118.688L70.8455 118.687Z" fill="white"/>
<path id="Vector_2" d="M110.253 111.597C110.283 108.857 110.225 106.118 110.079 103.386C109.921 100.453 109.674 97.5253 109.332 94.6113C109.011 91.8844 108.603 89.1697 108.11 86.4705C107.616 83.7713 107.043 81.1114 106.384 78.4603C105.725 75.8092 104.983 73.1788 104.159 70.5759C103.277 67.788 102.298 65.0304 101.243 62.3021C100.26 59.7542 99.1952 57.2354 98.0523 54.7525C96.9095 52.2697 95.6884 49.8228 94.3906 47.4153C93.0928 45.0078 91.7183 42.6414 90.2685 40.3194C88.8123 37.9871 87.2791 35.7008 85.6738 33.4642C85.1756 32.7692 84.6739 32.0757 84.1648 31.3886C83.944 31.1361 83.6759 30.9524 83.3605 30.841C83.0603 30.673 82.7329 30.5898 82.3745 30.591C81.7389 30.5695 80.9649 30.8169 80.4995 31.2644C80.0341 31.7119 79.6463 32.3451 79.6388 33.0163L79.6936 33.6879C79.7917 34.1176 79.9932 34.4954 80.2964 34.8196C80.6642 35.3155 81.0283 35.8147 81.3888 36.3154L81.0123 35.7923C83.6448 39.4537 86.0792 43.251 88.3081 47.1605C90.5242 51.0512 92.535 55.0524 94.3362 59.1455C95.3553 61.463 96.307 63.8101 97.1897 66.1817L96.9634 65.5731C98.5879 69.9406 99.979 74.3924 101.129 78.9067C102.28 83.4209 103.188 87.9975 103.846 92.6125C104.217 95.2119 104.508 97.8253 104.721 100.444L104.666 99.7728C104.909 102.794 105.048 105.826 105.075 108.861C105.083 109.714 105.083 110.569 105.073 111.423C105.066 112.086 105.266 112.732 105.729 113.226C106.153 113.677 106.872 114.03 107.519 114.024C108.167 114.017 108.898 113.827 109.394 113.35C109.891 112.874 110.248 112.27 110.255 111.599L110.253 111.597Z" fill="white"/>
<path id="Vector_3" d="M42.6629 83.8705C45.2967 83.7878 47.9249 83.5911 50.5486 83.3178C52.9591 83.0661 55.3605 82.7275 57.7475 82.3035C60.1345 81.8794 62.507 81.3699 64.8596 80.7765C67.2123 80.183 69.5431 79.509 71.8469 78.7542C74.347 77.9346 76.8203 77.0309 79.2561 76.0409C81.5019 75.1295 83.715 74.1405 85.8902 73.0755C88.0654 72.0105 90.1991 70.871 92.291 69.6587C94.3829 68.4464 96.426 67.1611 98.422 65.8063C100.585 64.3381 102.703 62.8141 104.749 61.1975C106.636 59.7065 108.468 58.1472 110.234 56.5229C110.667 56.1246 111.097 55.7228 111.521 55.3175C112.021 54.8399 112.361 54.2243 112.4 53.5443C112.437 52.9202 112.193 52.166 111.731 51.7188C111.27 51.2716 110.611 50.9044 109.904 50.9111C109.196 50.9178 108.496 51.1099 107.989 51.5924C104.961 54.4791 101.734 57.1739 98.344 59.6592C97.3916 60.3577 96.4261 61.0371 95.4492 61.7025L96.0085 61.322C93.26 63.1884 90.4168 64.9225 87.4917 66.5161C84.5666 68.1098 81.5595 69.5647 78.4902 70.8732C76.7636 71.6084 75.0167 72.297 73.2513 72.9392L73.8975 72.7044C70.7025 73.8659 67.4512 74.8725 64.1562 75.7179C60.8613 76.5632 57.5515 77.2399 54.2036 77.7505C52.3122 78.04 50.4133 78.275 48.5105 78.4554L49.2194 78.3876C47.1372 78.584 45.0518 78.7158 42.9631 78.7812C42.2551 78.8032 41.5906 78.988 41.0488 79.4625C40.5646 79.888 40.1768 80.6004 40.1698 81.2357C40.1628 81.871 40.3474 82.5841 40.839 83.0612C41.3306 83.5383 41.9656 83.8911 42.6665 83.8689L42.6629 83.8705Z" fill="white"/>
<path id="Vector_4" d="M47.1836 103.411C50.0541 104.102 52.9613 104.648 55.8908 105.083C58.6059 105.489 61.3439 105.774 64.0904 105.942C66.8369 106.111 69.5954 106.163 72.3535 106.1C75.3261 106.032 78.2948 105.818 81.2568 105.507C84.0049 105.217 86.7452 104.815 89.4637 104.301C92.1822 103.787 94.8804 103.165 97.5496 102.431C100.219 101.698 102.855 100.857 105.455 99.9079C108.249 98.8886 111.003 97.7822 113.702 96.5348C116.21 95.3755 118.669 94.1114 121.064 92.7458C123.63 91.2829 126.111 89.6936 128.535 88.0165C129.092 87.6321 129.645 87.2406 130.194 86.8421C130.465 86.6179 130.665 86.3484 130.789 86.0334C130.973 85.7324 131.068 85.4062 131.075 85.0512C131.111 84.4209 130.866 83.6593 130.403 83.2077C129.94 82.7562 129.28 82.3855 128.571 82.3924L127.86 82.4611C127.404 82.5675 127 82.7753 126.652 83.0827C125.997 83.5565 125.336 84.0215 124.67 84.4795L125.231 84.0952C122.644 85.8662 119.966 87.5107 117.21 89.0186C114.454 90.5266 111.604 91.9129 108.701 93.1551C107.069 93.8533 105.417 94.5079 103.749 95.1191L104.397 94.8818C101.238 96.0364 98.0217 97.0346 94.7638 97.8717C91.5059 98.7089 88.1827 99.3877 84.8462 99.8979C82.9734 100.185 81.0912 100.418 79.2066 100.6L79.9173 100.531C76.6329 100.846 73.3381 101 70.0459 100.988C66.7536 100.977 63.4673 100.8 60.2031 100.457C58.365 100.263 56.5335 100.015 54.7122 99.7135L55.4123 99.8298C53.2173 99.4656 51.0374 99.0247 48.8781 98.5039C48.1879 98.3381 47.4694 98.3584 46.8195 98.6934C46.2517 98.9865 45.6914 99.5802 45.513 100.187C45.3213 100.839 45.3106 101.579 45.6658 102.176C45.9952 102.731 46.5162 103.25 47.1819 103.409L47.1836 103.411Z" fill="white"/>
</g>
</g>
</g>
<defs>
<filter id="filter0_d_7_90" x="0" y="0" width="160" height="160" filterUnits="userSpaceOnUse" color-interpolation-filters="sRGB">
<feFlood flood-opacity="0" result="BackgroundImageFix"/>
<feColorMatrix in="SourceAlpha" type="matrix" values="0 0 0 0 0 0 0 0 0 0 0 0 0 0 0 0 0 0 127 0" result="hardAlpha"/>
<feOffset dy="4"/>
<feGaussianBlur stdDeviation="2"/>
<feComposite in2="hardAlpha" operator="out"/>
<feColorMatrix type="matrix" values="0 0 0 0 0 0 0 0 0 0 0 0 0 0 0 0 0 0 0.25 0"/>
<feBlend mode="normal" in2="BackgroundImageFix" result="effect1_dropShadow_7_90"/>
<feBlend mode="normal" in="SourceGraphic" in2="effect1_dropShadow_7_90" result="shape"/>
</filter>
</defs>
</svg>
