<svg width="61" height="60" viewBox="0 0 61 60" fill="none" xmlns="http://www.w3.org/2000/svg">
<g id="Frame">
<path id="Vector" d="M33.1132 5.00195C35.9736 5.0066 37.4231 5.0215 38.6756 5.05818L39.169 5.07403C39.7388 5.09395 40.301 5.11895 40.9789 5.1502C43.6835 5.27313 45.5285 5.69395 47.1488 6.3127C48.824 6.94813 50.2389 7.80645 51.6516 9.19605C53.0622 10.5856 53.935 11.9815 54.5832 13.6252C55.2099 15.2169 55.638 17.0336 55.765 19.694C55.7953 20.3606 55.8197 20.9136 55.8398 21.4742L55.8558 21.9595C55.8929 23.1913 55.9099 24.6173 55.9152 27.4309L55.9173 29.2949C55.9175 29.5226 55.9175 29.7576 55.9175 30.0001L55.9173 30.7054L55.9158 32.5696C55.9109 35.3831 55.8959 36.8091 55.8586 38.0409L55.8423 38.5261C55.8222 39.0869 55.7968 39.6399 55.765 40.3064C55.64 42.9669 55.2099 44.7814 54.5832 46.3751C53.9371 48.0231 53.0622 49.4149 51.6516 50.8044C50.2389 52.1919 48.8176 53.0501 47.1488 53.6876C45.5285 54.3044 43.6835 54.7251 40.9789 54.8501C40.301 54.8799 39.7388 54.9041 39.169 54.9236L38.6756 54.9394C37.4231 54.9761 35.9736 54.9926 33.1132 54.9981L31.2179 55.0001C30.9863 55.0001 30.7474 55.0001 30.5009 55.0001H29.7839L27.8885 54.9984C25.0282 54.9939 23.5784 54.9789 22.326 54.9421L21.8327 54.9264C21.2628 54.9064 20.7006 54.8814 20.0228 54.8501C17.318 54.7274 15.4753 54.3044 13.8529 53.6876C12.1796 53.0524 10.7626 52.1919 9.34991 50.8044C7.93718 49.4149 7.06666 48.0169 6.41853 46.3751C5.78947 44.7814 5.36374 42.9669 5.23666 40.3064C5.20646 39.6399 5.18183 39.0869 5.16188 38.5261L5.1459 38.0409C5.10871 36.8091 5.09176 35.3831 5.08627 32.5696L5.08594 27.4309C5.09066 24.6173 5.10579 23.1913 5.14307 21.9595L5.15921 21.4742C5.17947 20.9136 5.20489 20.3606 5.23666 19.694C5.36161 17.0315 5.78947 15.219 6.41853 13.6252C7.06452 11.9794 7.93718 10.5856 9.34991 9.19605C10.7626 7.80645 12.1818 6.9502 13.8529 6.3127C15.4732 5.69395 17.3159 5.2752 20.0228 5.1502C20.7006 5.12053 21.2628 5.0963 21.8327 5.07668L22.326 5.06095C23.5784 5.02435 25.0282 5.00768 27.8885 5.00228L33.1132 5.00195ZM30.5009 17.5002C23.4785 17.5002 17.7925 23.099 17.7925 30.0001C17.7925 36.9074 23.4846 42.5001 30.5009 42.5001C37.5232 42.5001 43.2092 36.9014 43.2092 30.0001C43.2092 23.093 37.5169 17.5002 30.5009 17.5002ZM30.5009 22.5002C34.7122 22.5002 38.1259 25.8569 38.1259 30.0001C38.1259 34.1424 34.7132 37.5001 30.5009 37.5001C26.2896 37.5001 22.8758 34.1436 22.8758 30.0001C22.8758 25.8579 26.2883 22.5002 30.5009 22.5002ZM43.8446 13.7502C42.0927 13.7502 40.6675 15.15 40.6675 16.8731C40.6675 18.5962 42.0906 19.9981 43.8446 19.9981C45.5963 19.9981 47.0217 18.5984 47.0217 16.8731C47.0217 15.15 45.5941 13.7481 43.8446 13.7502Z" fill="#007368"/>
</g>
</svg>
