<svg width="63" height="63" viewBox="0 0 63 63" fill="none" xmlns="http://www.w3.org/2000/svg">
<g id="Frame">
<path id="Vector" d="M48.1324 48.1399H41.1355V37.1758C41.1355 34.5613 41.0824 31.1968 37.4893 31.1968C33.8414 31.1968 33.2841 34.0418 33.2841 36.9828V48.1399H26.2871V25.5938H33.0085V28.6668H33.099C34.0382 26.895 36.322 25.0248 39.7337 25.0248C46.8233 25.0248 48.1345 29.6909 48.1345 35.7643L48.1324 48.1399ZM18.3847 22.5087C16.1324 22.5087 14.3231 20.6857 14.3231 18.4432C14.3231 16.2028 16.1344 14.3817 18.3847 14.3817C20.629 14.3817 22.4482 16.2028 22.4482 18.4432C22.4482 20.6857 20.6271 22.5087 18.3847 22.5087ZM21.893 48.1399H14.8763V25.5938H21.893V48.1399ZM51.6328 7.875H11.3641C9.43669 7.875 7.87744 9.39881 7.87744 11.279V51.7212C7.87744 53.603 9.43669 55.125 11.3641 55.125H51.6271C53.5525 55.125 55.1275 53.603 55.1275 51.7212V11.279C55.1275 9.39881 53.5525 7.875 51.6271 7.875H51.6328Z" fill="#007368"/>
</g>
</svg>
