<svg width="73" height="71" viewBox="0 0 73 71" fill="none" xmlns="http://www.w3.org/2000/svg">
<g clip-path="url(#clip0_6_98)">
<path d="M16.313 35.6202C26.3804 35.6202 32.626 41.2544 32.626 51.9864V69.2093C32.626 70.0204 31.9662 70.6778 31.1521 70.6778H1.47391C0.659804 70.6778 0 70.0204 0 69.2093V51.9864C0 41.2544 6.24561 35.6202 16.313 35.6202ZM16.313 48.0071C13.2837 48.0071 11.1858 49.6613 11.1858 53.6413V57.2701C11.1858 58.0812 11.8456 58.7386 12.6597 58.7386H20.012C20.8261 58.7386 21.4859 58.0812 21.4859 57.2701V53.6413C21.4859 49.6613 19.3417 48.0071 16.3124 48.0071H16.313Z" fill="white"/>
<path d="M31.0411 23.1503V30.8095C31.0411 31.7467 30.2789 32.5061 29.3382 32.5061H1.50363C0.698784 32.5061 0.0463867 31.8561 0.0463867 31.0542V1.45189C0.0463867 0.65 0.698784 0 1.50363 0H10.7884C11.7291 0 12.4913 0.75946 12.4913 1.69664V19.7577C12.4913 20.6948 13.2536 21.4543 14.1942 21.4543H29.3395C30.2801 21.4543 31.0424 22.2138 31.0424 23.1509L31.0411 23.1503Z" fill="white"/>
<path d="M72.4289 1.93586V30.5703C72.4289 31.6397 71.5592 32.5061 70.4859 32.5061H58.889C58.2088 32.5061 57.5787 32.1519 57.2268 31.5726L47.8649 16.1565C47.7791 16.0151 47.6248 15.9284 47.4588 15.9284H47.4557C47.1934 15.9284 46.9804 16.1405 46.9804 16.4019V30.5709C46.9804 31.6403 46.1108 32.5067 45.0374 32.5067H36.4791C35.4058 32.5067 34.5361 31.6403 34.5361 30.5709V1.93586C34.5361 0.866461 35.4058 0 36.4791 0H48.5297C49.216 0 49.8517 0.360974 50.2017 0.949479L59.1007 15.9278C59.1865 16.0717 59.3414 16.1602 59.5093 16.1602C59.7716 16.1602 59.9846 15.9481 59.9846 15.6867V1.93586C59.9846 0.866461 60.8542 0 61.9276 0H70.4859C71.5592 0 72.4289 0.866461 72.4289 1.93586Z" fill="white"/>
<path d="M43.0137 64.1919V66.3449C43.0137 66.7661 43.323 67.1074 43.705 67.1074H43.8464C44.2284 67.1074 44.5376 67.4487 44.5376 67.8699V69.9491C44.5376 70.3703 44.2284 70.7116 43.8464 70.7116H38.5297C38.1476 70.7116 37.8384 70.3703 37.8384 69.9491V67.8699C37.8384 67.4487 38.1476 67.1074 38.5297 67.1074H38.671C39.0531 67.1074 39.3623 66.7661 39.3623 66.3449V64.1919C39.3623 63.7707 39.0531 63.4294 38.671 63.4294H38.5297C38.1476 63.4294 37.8384 63.0881 37.8384 62.6669V60.5871C37.8384 60.1659 38.1476 59.8246 38.5297 59.8246H43.9167C44.2988 59.8246 44.608 60.1659 44.608 60.5871V62.6669C44.608 63.0881 44.2988 63.4294 43.9167 63.4294H43.705C43.323 63.4294 43.0137 63.7707 43.0137 64.1919Z" fill="white"/>
<path d="M53.9328 65.0473H57.9188C58.3039 65.0473 58.6162 65.3585 58.6162 65.7422V70.0167C58.6162 70.4004 58.3039 70.7116 57.9188 70.7116H56.4733C56.2128 70.7116 56.0017 70.5013 56.0017 70.2418V70.0598C55.0135 70.6507 53.7976 70.9988 52.5052 70.9988C48.4618 70.9988 46.2114 68.6509 46.2114 65.4101C46.2114 62.1694 48.4612 59.8215 52.5052 59.8215C55.3567 59.8215 57.8324 61.4652 58.4693 63.8131C58.5885 64.2522 58.2508 64.6833 57.7941 64.6833H54.8395C54.608 64.6833 54.3852 64.5763 54.2537 64.3856C53.9525 63.9496 53.3514 63.6231 52.6274 63.6231C51.4417 63.6231 50.6362 64.3955 50.6362 65.4101C50.6362 66.6068 51.4417 67.4702 52.6274 67.4702C53.281 67.4702 53.7217 67.3036 54.0414 67.0613V66.9703H53.7069C53.4464 66.9703 53.2353 66.7599 53.2353 66.5004V65.7416C53.2353 65.3579 53.5477 65.0467 53.9328 65.0467V65.0473Z" fill="white"/>
<path d="M72.5289 60.7937V70.029C72.5289 70.4066 72.2216 70.7122 71.8432 70.7122H68.1424C67.9023 70.7122 67.6795 70.5874 67.5554 70.3826L64.4718 65.305H64.2286V70.0284C64.2286 70.406 63.9212 70.7116 63.5429 70.7116H60.8561C60.4772 70.7116 60.1704 70.4053 60.1704 70.0284V60.7931C60.1704 60.4155 60.4778 60.1099 60.8561 60.1099H64.7045C64.947 60.1099 65.1711 60.2372 65.2945 60.445L68.2269 65.3806H68.4701V60.7931C68.4701 60.4155 68.7775 60.1099 69.1558 60.1099H71.8426C72.2216 60.1099 72.5283 60.4161 72.5283 60.7931L72.5289 60.7937Z" fill="white"/>
<path d="M49.9869 51.2227C49.9869 54.4942 48.0711 56.5235 44.4227 56.5235H38.9746C38.474 56.5235 38.0679 56.1189 38.0679 55.6202V46.8252C38.0679 46.3265 38.474 45.9218 38.9746 45.9218H44.4227C48.0717 45.9218 49.9869 47.9512 49.9869 51.2227ZM45.7757 51.2227C45.7757 50.2381 45.2134 49.5568 43.8604 49.5568H43.034C42.5334 49.5568 42.1273 49.9614 42.1273 50.4601V52.0006C42.1273 52.4993 42.5334 52.9039 43.034 52.9039H43.8604C45.2134 52.9039 45.7757 52.2072 45.7757 51.2227Z" fill="white"/>
<path d="M55.1716 49.3883V49.4977C55.1716 49.6558 55.3 49.7837 55.4586 49.7837H59.6427C60.0365 49.7837 60.3556 50.1016 60.3556 50.494V51.9508C60.3556 52.3431 60.0365 52.661 59.6427 52.661H55.4586C55.3 52.661 55.1716 52.7889 55.1716 52.947V53.0712C55.1716 53.2292 55.3 53.3572 55.4586 53.3572H60.0834C60.4772 53.3572 60.7963 53.6751 60.7963 54.0674V55.812C60.7963 56.2044 60.4772 56.5223 60.0834 56.5223H52.2602C51.6343 56.5223 51.127 56.0168 51.127 55.3932V47.0496C51.127 46.4261 51.6343 45.9206 52.2602 45.9206H60.0834C60.4772 45.9206 60.7963 46.2385 60.7963 46.6309V48.3908C60.7963 48.7832 60.4772 49.1011 60.0834 49.1011H55.4586C55.3 49.1011 55.1716 49.229 55.1716 49.3871V49.3883Z" fill="white"/>
<path d="M63.6926 53.0823H65.9109C66.2189 53.0823 66.4954 53.2545 66.6472 53.5214C66.8577 53.8916 67.3379 54.0213 67.7403 54.0213C68.3026 54.0213 68.5766 53.8393 68.5766 53.506C68.5766 53.006 67.9076 52.915 66.7219 52.5823C64.2135 51.8856 63.1192 51.1741 63.1192 49.432C63.1192 45.9335 66.296 45.7669 68.0292 45.7669C69.982 45.7669 72.1522 46.4415 72.5978 48.5655C72.6885 48.9978 72.3497 49.4018 71.9065 49.4018H69.55C69.2537 49.4018 68.9698 49.2512 68.8291 48.991C68.6785 48.7131 68.3693 48.5686 68.0137 48.5686C67.5428 48.5686 67.2385 48.7352 67.2385 49.1442C67.2385 49.6742 68.3637 49.9012 69.3821 50.1434C70.4005 50.3857 73.0002 50.6582 73.0002 53.2483C73.0002 56.2775 70.8566 56.9441 68.1051 56.9441C64.9363 56.9441 63.4007 55.5931 62.8995 54.1806C62.7094 53.6437 63.1211 53.0823 63.6926 53.0823Z" fill="white"/>
<path d="M63.3875 36.0292C63.3875 37.9576 63.3875 39.9304 63.3875 41.8816C57.0123 41.8816 50.6216 41.8822 44.2612 41.8828C44.2662 39.9353 44.2705 37.9638 44.2754 36.0279C50.6 36.0279 56.9876 36.0285 63.3875 36.0292Z" fill="#FBC965"/>
<path d="M42.5246 35.9418C42.5215 37.9509 42.519 39.9205 42.5165 41.913C42.4881 41.9154 42.4073 41.9302 42.3264 41.9308C41.0883 41.932 39.8508 41.9345 38.6126 41.9308C37.9263 41.929 37.6288 41.7057 37.6282 41.1916C37.6257 39.6856 37.6257 38.179 37.6294 36.673C37.6307 36.1706 37.917 35.9566 38.5898 35.9535C39.91 35.9468 41.2309 35.9455 42.5252 35.9418H42.5246Z" fill="#FBC965"/>
<path d="M65.1175 35.9634C65.6773 35.8976 66.1983 35.9984 66.7192 36.2186C68.4091 36.9337 70.1201 37.6213 71.8223 38.3205C72.1569 38.4576 72.4519 38.6187 72.4445 38.9459C72.4377 39.2539 72.168 39.4151 71.8427 39.5485C70.0287 40.2938 68.2252 41.0551 66.3933 41.7752C66.0156 41.9234 65.5304 41.9191 65.1089 41.9831C65.112 39.9353 65.1144 37.9583 65.1175 35.9634Z" fill="#FBC965"/>
</g>
<defs>
<clipPath id="clip0_6_98">
<rect width="73" height="71" fill="white"/>
</clipPath>
</defs>
</svg>
