<svg width="204" height="198" viewBox="0 0 204 198" fill="none" xmlns="http://www.w3.org/2000/svg">
<g id="Logo" clip-path="url(#clip0_19_111)">
<g id="Calque 1">
<g id="Group">
<path id="Vector" d="M45.5871 99.335C73.7207 99.335 91.1741 115.047 91.1741 144.976V193.006C91.1741 195.268 89.3303 197.101 87.0553 197.101H4.11888C1.84384 197.101 0 195.268 0 193.006V144.976C0 115.047 17.4535 99.335 45.5871 99.335ZM45.5871 133.879C37.1216 133.879 31.259 138.492 31.259 149.591V159.711C31.259 161.973 33.1028 163.806 35.3778 163.806H55.9239C58.199 163.806 60.0428 161.973 60.0428 159.711V149.591C60.0428 138.492 54.0508 133.879 45.5853 133.879H45.5871Z" fill="#007368"/>
<path id="Vector_2" d="M86.7448 64.56V85.9194C86.7448 88.533 84.6147 90.6509 81.986 90.6509H4.2017C1.95253 90.6509 0.129395 88.8382 0.129395 86.602V4.04894C0.129395 1.81268 1.95253 0 4.2017 0H30.1482C32.7768 0 34.907 2.11793 34.907 4.73148V55.0988C34.907 57.7124 37.0372 59.8303 39.6658 59.8303H81.9895C84.6181 59.8303 86.7483 61.9482 86.7483 64.5618L86.7448 64.56Z" fill="#007368"/>
<path id="Vector_3" d="M202.405 5.39858V85.2523C202.405 88.2346 199.974 90.6509 196.975 90.6509H164.567C162.667 90.6509 160.906 89.6631 159.922 88.0476L133.76 45.0562C133.521 44.6618 133.089 44.42 132.625 44.42H132.617C131.884 44.42 131.289 45.0116 131.289 45.7405V85.254C131.289 88.2363 128.858 90.6526 125.859 90.6526H101.942C98.943 90.6526 96.5127 88.2363 96.5127 85.254V5.39858C96.5127 2.41633 98.943 0 101.942 0H135.618C137.536 0 139.312 1.00666 140.29 2.64784L165.159 44.4183C165.399 44.8195 165.832 45.0665 166.301 45.0665C167.034 45.0665 167.629 44.4748 167.629 43.746V5.39858C167.629 2.41633 170.059 0 173.059 0H196.975C199.974 0 202.405 2.41633 202.405 5.39858Z" fill="#007368"/>
<path id="Vector_4" d="M120.203 179.014V185.018C120.203 186.193 121.067 187.145 122.135 187.145H122.53C123.597 187.145 124.461 188.097 124.461 189.271V195.069C124.461 196.244 123.597 197.196 122.53 197.196H107.672C106.604 197.196 105.74 196.244 105.74 195.069V189.271C105.74 188.097 106.604 187.145 107.672 187.145H108.067C109.135 187.145 109.999 186.193 109.999 185.018V179.014C109.999 177.84 109.135 176.888 108.067 176.888H107.672C106.604 176.888 105.74 175.936 105.74 174.761V168.961C105.74 167.787 106.604 166.835 107.672 166.835H122.726C123.794 166.835 124.658 167.787 124.658 168.961V174.761C124.658 175.936 123.794 176.888 122.726 176.888H122.135C121.067 176.888 120.203 177.84 120.203 179.014Z" fill="#007368"/>
<path id="Vector_5" d="M150.717 181.4H161.856C162.932 181.4 163.805 182.267 163.805 183.337V195.258C163.805 196.328 162.932 197.196 161.856 197.196H157.816C157.088 197.196 156.498 196.609 156.498 195.886V195.378C153.737 197.026 150.339 197.997 146.727 197.997C135.428 197.997 129.139 191.449 129.139 182.411C129.139 173.374 135.426 166.826 146.727 166.826C154.696 166.826 161.614 171.41 163.394 177.958C163.727 179.182 162.784 180.384 161.507 180.384H153.25C152.604 180.384 151.981 180.086 151.614 179.554C150.772 178.338 149.092 177.428 147.069 177.428C143.755 177.428 141.504 179.582 141.504 182.411C141.504 185.749 143.755 188.156 147.069 188.156C148.895 188.156 150.127 187.692 151.02 187.016V186.762H150.085C149.358 186.762 148.768 186.176 148.768 185.452V183.336C148.768 182.266 149.64 181.398 150.717 181.398V181.4Z" fill="#007368"/>
<path id="Vector_6" d="M202.684 169.538V195.293C202.684 196.346 201.825 197.198 200.768 197.198H190.426C189.755 197.198 189.132 196.85 188.785 196.279L180.168 182.119H179.489V195.291C179.489 196.344 178.63 197.196 177.572 197.196H170.064C169.005 197.196 168.148 196.342 168.148 195.291V169.536C168.148 168.483 169.007 167.631 170.064 167.631H180.818C181.496 167.631 182.122 167.986 182.467 168.565L190.662 182.329H191.342V169.536C191.342 168.483 192.201 167.631 193.258 167.631H200.766C201.825 167.631 202.682 168.485 202.682 169.536L202.684 169.538Z" fill="#007368"/>
<g id="Group_2">
<path id="Vector_7" d="M139.69 142.847C139.69 151.97 134.336 157.63 124.141 157.63H108.916C107.517 157.63 106.382 156.501 106.382 155.111V130.584C106.382 129.193 107.517 128.064 108.916 128.064H124.141C134.338 128.064 139.69 133.724 139.69 142.847ZM127.921 142.847C127.921 140.102 126.35 138.201 122.569 138.201H120.26C118.861 138.201 117.726 139.33 117.726 140.721V145.016C117.726 146.407 118.861 147.536 120.26 147.536H122.569C126.35 147.536 127.921 145.593 127.921 142.847Z" fill="#007368"/>
<path id="Vector_8" d="M154.178 137.731V138.036C154.178 138.477 154.537 138.834 154.98 138.834H166.673C167.773 138.834 168.665 139.72 168.665 140.814V144.877C168.665 145.971 167.773 146.858 166.673 146.858H154.98C154.537 146.858 154.178 147.215 154.178 147.655V148.002C154.178 148.442 154.537 148.799 154.98 148.799H167.904C169.005 148.799 169.897 149.686 169.897 150.78V155.645C169.897 156.739 169.005 157.626 167.904 157.626H146.042C144.293 157.626 142.875 156.216 142.875 154.477V131.209C142.875 129.47 144.293 128.061 146.042 128.061H167.904C169.005 128.061 169.897 128.947 169.897 130.041V134.949C169.897 136.044 169.005 136.93 167.904 136.93H154.98C154.537 136.93 154.178 137.287 154.178 137.728V137.731Z" fill="#007368"/>
<path id="Vector_9" d="M177.991 148.033H184.19C185.051 148.033 185.824 148.513 186.248 149.257C186.836 150.289 188.178 150.651 189.303 150.651C190.874 150.651 191.64 150.144 191.64 149.214C191.64 147.82 189.77 147.566 186.457 146.638C179.447 144.695 176.389 142.711 176.389 137.853C176.389 128.097 185.266 127.632 190.11 127.632C195.567 127.632 201.632 129.513 202.877 135.436C203.13 136.642 202.184 137.769 200.945 137.769H194.36C193.532 137.769 192.738 137.349 192.345 136.623C191.924 135.848 191.06 135.445 190.067 135.445C188.751 135.445 187.9 135.91 187.9 137.05C187.9 138.528 191.045 139.161 193.891 139.837C196.737 140.513 204.001 141.272 204.001 148.496C204.001 156.943 198.011 158.802 190.322 158.802C181.467 158.802 177.175 155.035 175.775 151.095C175.244 149.598 176.394 148.033 177.991 148.033Z" fill="#007368"/>
</g>
<g id="Group_3">
<path id="Vector_10" d="M177.138 100.476C177.138 105.854 177.138 111.356 177.138 116.797C159.322 116.797 141.463 116.799 123.689 116.8C123.703 111.369 123.715 105.871 123.729 100.473C141.403 100.473 159.253 100.474 177.138 100.476Z" fill="#FBC965"/>
<path id="Vector_11" d="M118.835 100.232C118.827 105.835 118.82 111.328 118.813 116.884C118.734 116.891 118.508 116.932 118.282 116.934C114.822 116.937 111.363 116.944 107.903 116.934C105.985 116.929 105.154 116.306 105.152 114.873C105.145 110.673 105.145 106.471 105.156 102.271C105.159 100.87 105.959 100.274 107.84 100.265C111.529 100.246 115.22 100.243 118.837 100.232H118.835Z" fill="#FBC965"/>
<path id="Vector_12" d="M181.972 100.293C183.537 100.109 184.993 100.39 186.448 101.004C191.171 102.999 195.952 104.916 200.709 106.866C201.644 107.248 202.468 107.698 202.448 108.61C202.429 109.469 201.675 109.919 200.766 110.291C195.697 112.369 190.657 114.492 185.538 116.5C184.482 116.914 183.126 116.902 181.948 117.08C181.957 111.369 181.964 105.856 181.972 100.293Z" fill="#FBC965"/>
</g>
</g>
</g>
</g>
<defs>
<clipPath id="clip0_19_111">
<rect width="204" height="198" fill="white"/>
</clipPath>
</defs>
</svg>
